<svg width="118" height="37" viewBox="0 0 118 37" fill="none" xmlns="http://www.w3.org/2000/svg">
<path d="M16.4713 24.598L16.4533 28H0.289258V2.08H16.4533V5.482H4.51926V13.294H14.0593V16.588H4.51926V24.598H16.4713ZM33.2534 11.26C33.2534 11.536 33.2054 11.806 33.1094 12.07C33.0254 12.334 32.8994 12.556 32.7314 12.736L23.4254 24.994H32.9474V28H18.9434V26.38C18.9434 26.2 18.9854 25.984 19.0694 25.732C19.1534 25.48 19.2794 25.24 19.4474 25.012L28.8254 12.646H19.4834V9.64H33.2534V11.26ZM53.0194 9.64L42.9034 33.22C42.7714 33.496 42.6094 33.712 42.4174 33.868C42.2374 34.024 41.9554 34.102 41.5714 34.102H38.7094L42.0934 26.758L34.6054 9.64H37.9714C38.2954 9.64 38.5414 9.718 38.7094 9.874C38.8894 10.018 39.0214 10.192 39.1054 10.396L43.4794 20.818C43.5874 21.118 43.6834 21.418 43.7674 21.718C43.8634 22.006 43.9534 22.306 44.0374 22.618C44.1334 22.306 44.2294 22 44.3254 21.7C44.4214 21.4 44.5294 21.1 44.6494 20.8L48.8434 10.396C48.9274 10.18 49.0654 10 49.2574 9.856C49.4614 9.712 49.6834 9.64 49.9234 9.64H53.0194ZM62 28.648C60.488 28.648 59.156 28.384 58.004 27.856C56.852 27.328 55.964 26.596 55.34 25.66C54.716 24.7 54.404 23.596 54.404 22.348C54.404 21.292 54.62 20.332 55.052 19.468C55.508 18.604 56.108 17.92 56.852 17.416C57.62 16.912 58.46 16.66 59.372 16.66C60.212 16.66 60.92 16.876 61.496 17.308C62.072 17.716 62.432 18.292 62.576 19.036C61.328 19.036 60.332 19.372 59.588 20.044C58.844 20.692 58.472 21.58 58.472 22.708C58.472 23.74 58.784 24.568 59.408 25.192C60.032 25.816 60.86 26.128 61.892 26.128C63.164 26.128 64.208 25.708 65.024 24.868C65.864 24.004 66.284 22.924 66.284 21.628C66.284 20.5 65.972 19.432 65.348 18.424C64.724 17.416 63.788 16.192 62.54 14.752C61.244 13.264 60.26 11.992 59.588 10.936C58.94 9.856 58.616 8.68 58.616 7.408C58.616 6.16 58.964 5.044 59.66 4.06C60.356 3.052 61.316 2.26 62.54 1.684C63.764 1.108 65.144 0.819998 66.68 0.819998C68.624 0.819998 70.172 1.276 71.324 2.188C72.5 3.1 73.088 4.324 73.088 5.86C73.088 6.868 72.836 7.684 72.332 8.308C71.828 8.932 71.168 9.244 70.352 9.244C69.44 9.244 68.708 8.872 68.156 8.128C68.612 7.792 68.972 7.348 69.236 6.796C69.5 6.244 69.632 5.668 69.632 5.068C69.632 4.3 69.404 3.688 68.948 3.232C68.492 2.776 67.868 2.548 67.076 2.548C66.116 2.548 65.324 2.896 64.7 3.592C64.1 4.264 63.8 5.128 63.8 6.184C63.8 7.144 64.076 8.044 64.628 8.884C65.18 9.7 66.044 10.756 67.22 12.052C68.18 13.084 68.948 13.972 69.524 14.716C70.124 15.46 70.628 16.324 71.036 17.308C71.468 18.268 71.684 19.312 71.684 20.44C71.684 21.976 71.252 23.368 70.388 24.616C69.548 25.864 68.384 26.848 66.896 27.568C65.432 28.288 63.8 28.648 62 28.648ZM79.7233 8.056C78.9313 8.056 78.2593 7.78 77.7073 7.228C77.1553 6.676 76.8793 6.004 76.8793 5.212C76.8793 4.42 77.1553 3.748 77.7073 3.196C78.2593 2.62 78.9313 2.332 79.7233 2.332C80.5153 2.332 81.1873 2.62 81.7393 3.196C82.3153 3.748 82.6033 4.42 82.6033 5.212C82.6033 6.004 82.3153 6.676 81.7393 7.228C81.1873 7.78 80.5153 8.056 79.7233 8.056ZM77.2753 28.216C76.1233 28.216 75.1873 27.856 74.4673 27.136C73.7713 26.416 73.4233 25.336 73.4233 23.896C73.4233 23.296 73.5193 22.516 73.7113 21.556L76.1593 10H81.3433L78.7513 22.24C78.6553 22.6 78.6073 22.984 78.6073 23.392C78.6073 23.872 78.7153 24.22 78.9313 24.436C79.1713 24.628 79.5553 24.724 80.0833 24.724C80.7793 24.724 81.4273 24.436 82.0273 23.86C82.6273 23.26 83.0593 22.492 83.3233 21.556H84.8353C83.9473 24.148 82.8073 25.912 81.4153 26.848C80.0233 27.76 78.6433 28.216 77.2753 28.216ZM89.6809 37C88.5289 37 87.5689 36.7 86.8009 36.1C86.0329 35.5 85.6489 34.636 85.6489 33.508C85.6489 32.14 86.2009 31.036 87.3049 30.196C88.4089 29.38 89.8129 28.696 91.5169 28.144L91.9489 26.236C90.7249 27.556 89.2849 28.216 87.6289 28.216C86.2609 28.216 85.1209 27.748 84.2089 26.812C83.2969 25.876 82.8409 24.412 82.8409 22.42C82.8409 20.644 83.1889 18.784 83.8849 16.84C84.6049 14.872 85.6609 13.216 87.0529 11.872C88.4689 10.504 90.1489 9.82 92.0929 9.82C93.0769 9.82 93.8089 9.988 94.2889 10.324C94.7689 10.66 95.0089 11.104 95.0089 11.656V11.872L95.4049 10H100.589L97.0249 26.704C98.1769 26.32 99.1009 25.744 99.7969 24.976C100.493 24.208 101.081 23.068 101.561 21.556H103.073C102.425 23.692 101.549 25.264 100.445 26.272C99.3409 27.256 98.0929 27.928 96.7009 28.288L96.1609 30.88C95.6809 33.208 94.8529 34.804 93.6769 35.668C92.5009 36.556 91.1689 37 89.6809 37ZM89.9689 24.724C90.5209 24.724 91.0849 24.472 91.6609 23.968C92.2369 23.464 92.6329 22.78 92.8489 21.916L94.6849 13.384C94.6849 13.096 94.5649 12.808 94.3249 12.52C94.0849 12.208 93.7129 12.052 93.2089 12.052C92.2489 12.052 91.3849 12.616 90.6169 13.744C89.8489 14.848 89.2489 16.192 88.8169 17.776C88.3849 19.336 88.1689 20.716 88.1689 21.916C88.1689 23.116 88.3369 23.884 88.6729 24.22C89.0329 24.556 89.4649 24.724 89.9689 24.724ZM88.8529 34.192C89.2609 34.192 89.6569 33.916 90.0409 33.364C90.4249 32.812 90.7249 32.02 90.9409 30.988L91.1569 29.944C88.8049 30.808 87.6289 31.828 87.6289 33.004C87.6289 33.316 87.7369 33.592 87.9529 33.832C88.1689 34.072 88.4689 34.192 88.8529 34.192ZM113.939 28.216C112.667 28.216 111.743 27.832 111.167 27.064C110.591 26.296 110.303 25.324 110.303 24.148C110.303 23.644 110.363 23.08 110.483 22.456C110.603 21.808 110.723 21.184 110.843 20.584C110.987 19.984 111.083 19.6 111.131 19.432C111.323 18.592 111.503 17.764 111.671 16.948C111.839 16.132 111.923 15.472 111.923 14.968C111.923 13.744 111.491 13.132 110.627 13.132C110.003 13.132 109.451 13.444 108.971 14.068C108.491 14.668 108.107 15.46 107.819 16.444L105.371 28H100.187L104.003 10H109.187L108.791 11.872C109.991 10.528 111.395 9.856 113.003 9.856C114.227 9.856 115.199 10.192 115.919 10.864C116.639 11.536 116.999 12.556 116.999 13.924C116.999 14.62 116.915 15.4 116.747 16.264C116.579 17.104 116.339 18.136 116.027 19.36C115.835 20.104 115.655 20.836 115.487 21.556C115.343 22.252 115.271 22.804 115.271 23.212C115.271 23.692 115.379 24.064 115.595 24.328C115.811 24.592 116.183 24.724 116.711 24.724C117.287 24.724 117.683 24.652 117.899 24.508C117.755 25.732 117.311 26.656 116.567 27.28C115.847 27.904 114.971 28.216 113.939 28.216Z" fill="#FFF"/>
<path d="M53.18 31.6H117.899V33.4H53.18V31.6Z" fill="#FFF"/>
</svg>
